<svg width="48" height="48" viewBox="0 0 33 33" xmlns="http://www.w3.org/2000/svg">
    <path fill-rule="evenodd" clip-rule="evenodd" d="M16 29.8182C23.6316 29.8182 29.8182 23.6316 29.8182 16C29.8182 8.36844 23.6316 2.18182 16 2.18182C8.36844 2.18182 2.18182 8.36844 2.18182 16C2.18182 23.6316 8.36844 29.8182 16 29.8182ZM16 32C24.8366 32 32 24.8366 32 16C32 7.16345 24.8366 -1.97639e-08 16 0C7.16345 1.97639e-08 -1.97639e-08 7.16345 0 16C1.97639e-08 24.8366 7.16345 32 16 32Z" fill="currentColor"/>
    <path d="M18.4454 11.9871L15.3752 11.3374L12.373 25.5222L15.4433 26.172L18.4454 11.9871Z" fill="currentColor"/>
    <path d="M18.0376 5.88066L18.231 5.92158C19.3202 6.1521 20.013 7.22243 19.7834 8.30783L19.7441 8.49328C19.5136 9.58267 18.4433 10.2757 17.3581 10.046L17.1647 10.0051C16.0755 9.77459 15.3826 8.70419 15.6123 7.61881L15.6516 7.43336C15.8782 6.3432 16.9485 5.65014 18.0376 5.88066Z" fill="currentColor"/>
</svg>
